<svg xmlns="http://www.w3.org/2000/svg" version="1.1" xmlns:xlink="http://www.w3.org/1999/xlink" xmlns:svgjs="http://svgjs.dev/svgjs" width="1500" height="1500" viewBox="0 0 1500 1500"><rect width="1500" height="1500" fill="#010c80"></rect><g transform="matrix(0.6666666666666666,0,0,0.6666666666666666,249.39393939393938,458.69390963928623)"><svg viewBox="0 0 396 247" data-background-color="#010c80" preserveAspectRatio="xMidYMid meet" height="935" width="1500" xmlns="http://www.w3.org/2000/svg" xmlns:xlink="http://www.w3.org/1999/xlink"><g id="tight-bounds" transform="matrix(1,0,0,1,0.2400000000000091,-0.09999999999999432)"><svg viewBox="0 0 395.52 247.2" height="247.2" width="395.52"><g><svg></svg></g><g><svg viewBox="0 0 395.52 247.2" height="247.2" width="395.52"><mask id="a7194681-1eeb-4f9d-9d36-533a2c2e88fa"><rect width="640" height="400" fill="white"></rect><g transform="matrix(1,0,0,1,39.55199999999999,54.22190744456515)"><svg viewBox="0 0 316.416 138.7561851108697" height="138.7561851108697" width="316.416"><g><svg viewBox="0 0 316.416 138.7561851108697" height="138.7561851108697" width="316.416"><g><svg viewBox="0 0 316.416 138.7561851108697" height="138.7561851108697" width="316.416"><g><svg viewBox="0 0 316.416 138.7561851108697" height="138.7561851108697" width="316.416"><g id="SvgjsG2719"><svg viewBox="0 0 316.416 138.7561851108697" height="138.7561851108697" width="316.416" id="SvgjsSvg2718"><g><svg viewBox="0 0 316.416 138.7561851108697" height="138.7561851108697" width="316.416"><g transform="matrix(1,0,0,1,0,0)"><svg width="316.416" viewBox="-3.65 -35.25 101.55449439605482 45.099999999999994" height="138.7561851108697" data-palette-color="#ffffff"><g transform="matrix(1,0,0,1,0,0)"><g><svg width="16.709662930703214" viewBox="-0.8399999999999999 -40.86 106.61 45.36" height="7.018000000000001" data-palette-color="#ffffff" id="SvgjsSvg2717" x="77.19483146535161" y="-7.018000000000001"><path d="M10.85 0L3.16 0 3.16-36.36 17.51-36.36Q21.64-36.36 24.56-34.79 27.47-33.22 29-30.44 30.54-27.66 30.54-24.04L30.54-24.04Q30.54-20.42 28.98-17.65 27.41-14.88 24.46-13.33 21.5-11.79 17.31-11.79L17.31-11.79 8.17-11.79 8.17-17.95 16.07-17.95Q18.29-17.95 19.74-18.72 21.18-19.5 21.9-20.87 22.62-22.25 22.62-24.04L22.62-24.04Q22.62-25.85 21.9-27.21 21.18-28.57 19.73-29.32 18.27-30.08 16.03-30.08L16.03-30.08 10.85-30.08 10.85 0ZM43.23 0L35.54 0 35.54-36.36 49.89-36.36Q54.01-36.36 56.93-34.9 59.85-33.43 61.39-30.76 62.92-28.09 62.92-24.49L62.92-24.49Q62.92-20.86 61.36-18.26 59.8-15.66 56.84-14.28 53.89-12.89 49.7-12.89L49.7-12.89 40.09-12.89 40.09-19.07 48.45-19.07Q50.65-19.07 52.11-19.67 53.57-20.28 54.29-21.48 55-22.69 55-24.49L55-24.49Q55-26.3 54.29-27.54 53.57-28.78 52.1-29.43 50.64-30.08 48.42-30.08L48.42-30.08 43.23-30.08 43.23 0ZM46.89-16.55L55.18-16.55 64.22 0 55.73 0 46.89-16.55ZM101.77-18.18L101.77-18.18Q101.77-12.23 99.52-8.06 97.28-3.89 93.42-1.7 89.55 0.5 84.74 0.5L84.74 0.5Q79.9 0.5 76.04-1.7 72.19-3.91 69.95-8.08 67.72-12.25 67.72-18.18L67.72-18.18Q67.72-24.13 69.95-28.3 72.19-32.48 76.04-34.67 79.9-36.86 84.74-36.86L84.74-36.86Q89.55-36.86 93.42-34.67 97.28-32.48 99.52-28.3 101.77-24.13 101.77-18.18ZM93.98-18.18L93.98-18.18Q93.98-22.03 92.83-24.68 91.69-27.33 89.61-28.69 87.53-30.06 84.74-30.06L84.74-30.06Q81.96-30.06 79.88-28.69 77.8-27.33 76.66-24.68 75.51-22.03 75.51-18.18L75.51-18.18Q75.51-14.33 76.66-11.68 77.8-9.04 79.88-7.67 81.96-6.3 84.74-6.3L84.74-6.3Q87.53-6.3 89.61-7.67 91.69-9.04 92.83-11.68 93.98-14.33 93.98-18.18Z" opacity="1" transform="matrix(1,0,0,1,0,0)" fill="black" class="undefined-123" id="SvgjsPath2716" stroke-width="7" stroke="black" stroke-linejoin="round"></path></svg></g></g><path d="M2.4 0.05L2.4 0.05Q1.95 0.05 1.4 0.05 0.85 0.05 0.35 0L0.35 0 0.35-2.25 2-2.25Q3.6-2.2 4.23-2.83 4.85-3.45 4.85-5.15L4.85-5.15 4.85-29.55 8-29.55 8-6.5Q8-4 7.55-2.55 7.1-1.1 5.9-0.53 4.7 0.05 2.4 0.05ZM18.05 0.35L18.05 0.35Q16.9 0.35 15.72 0.03 14.55-0.3 13.72-1.48 12.9-2.65 12.9-5.15L12.9-5.15 12.9-7.55Q12.9-10.05 14.42-11.58 15.95-13.1 18.6-14.3L18.6-14.3Q20.3-15.15 21.37-15.8 22.45-16.45 23-17.25 23.55-18.05 23.55-19.4L23.55-19.4 23.55-20.45Q23.55-21.65 23.05-22.3 22.55-22.95 21.72-23.2 20.9-23.45 20-23.45L20-23.45Q17.75-23.45 17.05-22.23 16.35-21 16.35-18.6L16.35-18.6 16.35-16.5 13.5-16.5 13.5-18.9Q13.5-20.75 14-22.18 14.5-23.6 15.9-24.43 17.3-25.25 20-25.25L20-25.25Q22.85-25.25 24.27-24.6 25.7-23.95 26.17-22.75 26.65-21.55 26.65-19.9L26.65-19.9 26.65 0 23.6 0 23.55-3.1Q22.95-1.4 21.4-0.53 19.85 0.35 18.05 0.35ZM19.2-1.75L19.2-1.75Q21.45-1.75 22.47-3.35 23.5-4.95 23.5-7.6L23.5-7.6 23.5-15.5Q23-14.7 21.85-14.05 20.7-13.4 19.5-12.75L19.5-12.75Q17.8-11.75 16.87-10.68 15.95-9.6 15.95-7.7L15.95-7.7 15.95-5.75Q15.95-3.95 16.45-3.1 16.95-2.25 17.7-2 18.45-1.75 19.2-1.75ZM32.3 5.85L32.3 5.85Q31.24 5.85 30.42 5.7 29.59 5.55 29.14 5.45L29.14 5.45 29.14 3.6Q29.29 3.7 29.82 3.8 30.34 3.9 31.04 3.9L31.04 3.9Q31.79 3.9 32.72 3.65 33.64 3.4 34.24 2.25L34.24 2.25Q34.55 1.75 34.92 1.1 35.3 0.45 35.09-0.4L35.09-0.4 29.39-24.75 32.59-24.75 37.14-3.15 37.09-3.15 41.49-24.75 44.45-24.75 39.05-0.95Q38.3 2.5 36.7 4.17 35.09 5.85 32.3 5.85ZM50.44 0L47.39 0 47.39-24.75 50.44-24.75 50.44 0ZM48.94-27.8L48.94-27.8Q48.19-27.8 47.67-28.33 47.14-28.85 47.14-29.55L47.14-29.55Q47.14-30.3 47.67-30.78 48.19-31.25 48.94-31.25L48.94-31.25Q49.64-31.25 50.19-30.78 50.74-30.3 50.74-29.55L50.74-29.55Q50.74-28.85 50.19-28.33 49.64-27.8 48.94-27.8ZM60.24 0.35L60.24 0.35Q59.09 0.35 57.92 0.03 56.74-0.3 55.92-1.48 55.09-2.65 55.09-5.15L55.09-5.15 55.09-7.55Q55.09-10.05 56.62-11.58 58.14-13.1 60.79-14.3L60.79-14.3Q62.49-15.15 63.57-15.8 64.64-16.45 65.19-17.25 65.74-18.05 65.74-19.4L65.74-19.4 65.74-20.45Q65.74-21.65 65.24-22.3 64.74-22.95 63.92-23.2 63.09-23.45 62.19-23.45L62.19-23.45Q59.94-23.45 59.24-22.23 58.54-21 58.54-18.6L58.54-18.6 58.54-16.5 55.69-16.5 55.69-18.9Q55.69-20.75 56.19-22.18 56.69-23.6 58.09-24.43 59.49-25.25 62.19-25.25L62.19-25.25Q65.04-25.25 66.47-24.6 67.89-23.95 68.37-22.75 68.84-21.55 68.84-19.9L68.84-19.9 68.84 0 65.79 0 65.74-3.1Q65.14-1.4 63.59-0.53 62.04 0.35 60.24 0.35ZM61.39-1.75L61.39-1.75Q63.64-1.75 64.67-3.35 65.69-4.95 65.69-7.6L65.69-7.6 65.69-15.5Q65.19-14.7 64.04-14.05 62.89-13.4 61.69-12.75L61.69-12.75Q59.99-11.75 59.07-10.68 58.14-9.6 58.14-7.7L58.14-7.7 58.14-5.75Q58.14-3.95 58.64-3.1 59.14-2.25 59.89-2 60.64-1.75 61.39-1.75Z" opacity="1" transform="matrix(1,0,0,1,0,0)" fill="black" class="wordmark-text-0" id="SvgjsPath2715" stroke-width="7" stroke="black" stroke-linejoin="round"></path></svg></g></svg></g></svg></g></svg></g></svg></g></svg></g></svg></g></mask><g transform="matrix(1,0,0,1,39.55199999999999,54.22190744456515)"><svg viewBox="0 0 316.416 138.7561851108697" height="138.7561851108697" width="316.416"><g><svg viewBox="0 0 316.416 138.7561851108697" height="138.7561851108697" width="316.416"><g><svg viewBox="0 0 316.416 138.7561851108697" height="138.7561851108697" width="316.416"><g><svg viewBox="0 0 316.416 138.7561851108697" height="138.7561851108697" width="316.416"><g id="textblocktransform"><svg viewBox="0 0 316.416 138.7561851108697" height="138.7561851108697" width="316.416" id="textblock"><g><svg viewBox="0 0 316.416 138.7561851108697" height="138.7561851108697" width="316.416"><g transform="matrix(1,0,0,1,0,0)"><svg width="316.416" viewBox="-3.65 -35.25 101.55449439605482 45.099999999999994" height="138.7561851108697" data-palette-color="#ffffff"><g transform="matrix(1,0,0,1,0,0)"><g><svg width="16.709662930703214" viewBox="-0.8399999999999999 -40.86 106.61 45.36" height="7.018000000000001" data-palette-color="#ffffff" id="scriptelement" x="77.19483146535161" y="-7.018000000000001"><path d="M10.85 0L3.16 0 3.16-36.36 17.51-36.36Q21.64-36.36 24.56-34.79 27.47-33.22 29-30.44 30.54-27.66 30.54-24.04L30.54-24.04Q30.54-20.42 28.98-17.65 27.41-14.88 24.46-13.33 21.5-11.79 17.31-11.79L17.31-11.79 8.17-11.79 8.17-17.95 16.07-17.95Q18.29-17.95 19.74-18.72 21.18-19.5 21.9-20.87 22.62-22.25 22.62-24.04L22.62-24.04Q22.62-25.85 21.9-27.21 21.18-28.57 19.73-29.32 18.27-30.08 16.03-30.08L16.03-30.08 10.85-30.08 10.85 0ZM43.23 0L35.54 0 35.54-36.36 49.89-36.36Q54.01-36.36 56.93-34.9 59.85-33.43 61.39-30.76 62.92-28.09 62.92-24.49L62.92-24.49Q62.92-20.86 61.36-18.26 59.8-15.66 56.84-14.28 53.89-12.89 49.7-12.89L49.7-12.89 40.09-12.89 40.09-19.07 48.45-19.07Q50.65-19.07 52.11-19.67 53.57-20.28 54.29-21.48 55-22.69 55-24.49L55-24.49Q55-26.3 54.29-27.54 53.57-28.78 52.1-29.43 50.64-30.08 48.42-30.08L48.42-30.08 43.23-30.08 43.23 0ZM46.89-16.55L55.18-16.55 64.22 0 55.73 0 46.89-16.55ZM101.77-18.18L101.77-18.18Q101.77-12.23 99.52-8.06 97.28-3.89 93.42-1.7 89.55 0.5 84.74 0.5L84.74 0.5Q79.9 0.5 76.04-1.7 72.19-3.91 69.95-8.08 67.72-12.25 67.72-18.18L67.72-18.18Q67.72-24.13 69.95-28.3 72.19-32.48 76.04-34.67 79.9-36.86 84.74-36.86L84.74-36.86Q89.55-36.86 93.42-34.67 97.28-32.48 99.52-28.3 101.77-24.13 101.77-18.18ZM93.98-18.18L93.98-18.18Q93.98-22.03 92.83-24.68 91.69-27.33 89.61-28.69 87.53-30.06 84.74-30.06L84.74-30.06Q81.96-30.06 79.88-28.69 77.8-27.33 76.66-24.68 75.51-22.03 75.51-18.18L75.51-18.18Q75.51-14.33 76.66-11.68 77.8-9.04 79.88-7.67 81.96-6.3 84.74-6.3L84.74-6.3Q87.53-6.3 89.61-7.67 91.69-9.04 92.83-11.68 93.98-14.33 93.98-18.18Z" opacity="1" transform="matrix(1,0,0,1,0,0)" fill="#ffffff" class="undefined-123" data-fill-palette-color="primary" id="tk-123"></path></svg></g></g><path d="M2.4 0.05L2.4 0.05Q1.95 0.05 1.4 0.05 0.85 0.05 0.35 0L0.35 0 0.35-2.25 2-2.25Q3.6-2.2 4.23-2.83 4.85-3.45 4.85-5.15L4.85-5.15 4.85-29.55 8-29.55 8-6.5Q8-4 7.55-2.55 7.1-1.1 5.9-0.53 4.7 0.05 2.4 0.05ZM18.05 0.35L18.05 0.35Q16.9 0.35 15.72 0.03 14.55-0.3 13.72-1.48 12.9-2.65 12.9-5.15L12.9-5.15 12.9-7.55Q12.9-10.05 14.42-11.58 15.95-13.1 18.6-14.3L18.6-14.3Q20.3-15.15 21.37-15.8 22.45-16.45 23-17.25 23.55-18.05 23.55-19.4L23.55-19.4 23.55-20.45Q23.55-21.65 23.05-22.3 22.55-22.95 21.72-23.2 20.9-23.45 20-23.45L20-23.45Q17.75-23.45 17.05-22.23 16.35-21 16.35-18.6L16.35-18.6 16.35-16.5 13.5-16.5 13.5-18.9Q13.5-20.75 14-22.18 14.5-23.6 15.9-24.43 17.3-25.25 20-25.25L20-25.25Q22.85-25.25 24.27-24.6 25.7-23.95 26.17-22.75 26.65-21.55 26.65-19.9L26.65-19.9 26.65 0 23.6 0 23.55-3.1Q22.95-1.4 21.4-0.53 19.85 0.35 18.05 0.35ZM19.2-1.75L19.2-1.75Q21.45-1.75 22.47-3.35 23.5-4.95 23.5-7.6L23.5-7.6 23.5-15.5Q23-14.7 21.85-14.05 20.7-13.4 19.5-12.75L19.5-12.75Q17.8-11.75 16.87-10.68 15.95-9.6 15.95-7.7L15.95-7.7 15.95-5.75Q15.95-3.95 16.45-3.1 16.95-2.25 17.7-2 18.45-1.75 19.2-1.75ZM32.3 5.85L32.3 5.85Q31.24 5.85 30.42 5.7 29.59 5.55 29.14 5.45L29.14 5.45 29.14 3.6Q29.29 3.7 29.82 3.8 30.34 3.9 31.04 3.9L31.04 3.9Q31.79 3.9 32.72 3.65 33.64 3.4 34.24 2.25L34.24 2.25Q34.55 1.75 34.92 1.1 35.3 0.45 35.09-0.4L35.09-0.4 29.39-24.75 32.59-24.75 37.14-3.15 37.09-3.15 41.49-24.75 44.45-24.75 39.05-0.95Q38.3 2.5 36.7 4.17 35.09 5.85 32.3 5.85ZM50.44 0L47.39 0 47.39-24.75 50.44-24.75 50.44 0ZM48.94-27.8L48.94-27.8Q48.19-27.8 47.67-28.33 47.14-28.85 47.14-29.55L47.14-29.55Q47.14-30.3 47.67-30.78 48.19-31.25 48.94-31.25L48.94-31.25Q49.64-31.25 50.19-30.78 50.74-30.3 50.74-29.55L50.74-29.55Q50.74-28.85 50.19-28.33 49.64-27.8 48.94-27.8ZM60.24 0.35L60.24 0.35Q59.09 0.35 57.92 0.03 56.74-0.3 55.92-1.48 55.09-2.65 55.09-5.15L55.09-5.15 55.09-7.55Q55.09-10.05 56.62-11.58 58.14-13.1 60.79-14.3L60.79-14.3Q62.49-15.15 63.57-15.8 64.64-16.45 65.19-17.25 65.74-18.05 65.74-19.4L65.74-19.4 65.74-20.45Q65.74-21.65 65.24-22.3 64.74-22.95 63.92-23.2 63.09-23.45 62.19-23.45L62.19-23.45Q59.94-23.45 59.24-22.23 58.54-21 58.54-18.6L58.54-18.6 58.54-16.5 55.69-16.5 55.69-18.9Q55.69-20.75 56.19-22.18 56.69-23.6 58.09-24.43 59.49-25.25 62.19-25.25L62.19-25.25Q65.04-25.25 66.47-24.6 67.89-23.95 68.37-22.75 68.84-21.55 68.84-19.9L68.84-19.9 68.84 0 65.79 0 65.74-3.1Q65.14-1.4 63.59-0.53 62.04 0.35 60.24 0.35ZM61.39-1.75L61.39-1.75Q63.64-1.75 64.67-3.35 65.69-4.95 65.69-7.6L65.69-7.6 65.69-15.5Q65.19-14.7 64.04-14.05 62.89-13.4 61.69-12.75L61.69-12.75Q59.99-11.75 59.07-10.68 58.14-9.6 58.14-7.7L58.14-7.7 58.14-5.75Q58.14-3.95 58.64-3.1 59.14-2.25 59.89-2 60.64-1.75 61.39-1.75Z" opacity="1" transform="matrix(1,0,0,1,0,0)" fill="#ffffff" class="wordmark-text-0" data-fill-palette-color="primary" id="text-0"></path></svg></g></svg></g></svg></g></svg></g></svg></g></svg></g></svg></g><g mask="url(#a7194681-1eeb-4f9d-9d36-533a2c2e88fa)"><g transform="matrix(4.4276136212301775, 0, 0, 4.4276136212301775, 78.92537952380634, 1.0000000000000142)"><svg xmlns="http://www.w3.org/2000/svg" xmlns:xlink="http://www.w3.org/1999/xlink" version="1.1" x="0" y="0" viewBox="22.16 23.310499999999998 53.67885757076354 55.379719410085535" style="enable-background:new 0 0 100 100;" xml:space="preserve" height="55.379719410085535" width="53.67885757076354" class="icon-none" data-fill-palette-color="accent" id="none"><g fill="#0000ff" data-fill-palette-color="accent"><g fill="#0000ff" data-fill-palette-color="accent"><path class="" d="M65.732 57.58H65.738A1.25 1.25 0 0 0 66.983 56.443C67.066 55.533 67.712 47.435 64.956 43.736A1.249 1.249 0 1 0 62.951 45.229C64.546 47.369 64.686 52.325 64.566 55.076 63.105 55.07 60.511 55.066 58.082 55.08 52.68 55.08 52.514 51.246 52.512 50.801V24.561A1.25 1.25 0 1 0 50.011 24.561V50.789C50.01 50.896 50.006 53.46 51.961 55.424 53.385 56.855 55.422 57.58 58.018 57.58H58.096C61.728 57.56 65.73 57.58 65.732 57.58" fill="#0000ff" data-fill-palette-color="accent"></path><path class="" d="M42.562 23.311C41.872 23.311 41.312 23.871 41.312 24.561L41.313 46.316C41.314 48.916 41.316 51.516 41.312 54.115 41.307 57.815 40.002 61.159 37.821 63.058 36.284 64.396 34.437 64.929 32.338 64.64 25.658 63.722 24.66 55.984 24.66 51.454A1.25 1.25 0 1 0 22.16 51.454C22.16 60.548 25.746 66.257 31.998 67.116 32.478 67.182 32.95 67.215 33.414 67.215 35.672 67.215 37.741 66.442 39.462 64.943 42.18 62.578 43.806 58.531 43.812 54.12 43.816 51.518 43.814 48.917 43.813 46.315L43.812 24.561C43.812 23.871 43.252 23.311 42.562 23.311" fill="#0000ff" data-fill-palette-color="accent"></path><path class="" d="M53.212 72.234A1.251 1.251 0 0 0 51.417 73.974L55.615 78.308A1.247 1.247 0 0 0 57.383 78.337 1.25 1.25 0 0 0 57.41 76.569z" fill="#0000ff" data-fill-palette-color="accent"></path><path class="" d="M60.862 71.97A1.25 1.25 0 0 0 59.066 73.71L63.265 78.045A1.247 1.247 0 0 0 65.032 78.074 1.25 1.25 0 0 0 65.061 76.306z" fill="#0000ff" data-fill-palette-color="accent"></path><path class="" d="M73.987 47.329A1.25 1.25 0 1 0 71.77 48.48C74.619 53.966 73.142 58.661 70.809 61.226 68.156 64.146 64.145 65.002 60.343 63.464A1.251 1.251 0 0 0 59.405 65.782 12.6 12.6 0 0 0 64.126 66.725C67.338 66.725 70.385 65.41 72.66 62.908 76.36 58.841 76.867 52.871 73.987 47.328" fill="#0000ff" data-fill-palette-color="accent"></path></g></g></svg></g></g></svg></g><defs></defs></svg><rect width="395.52" height="247.2" fill="none" stroke="none" visibility="hidden"></rect></g></svg></g></svg>